<svg width="38" height="42" viewBox="0 0 38 42" fill="none" xmlns="http://www.w3.org/2000/svg">
<path d="M19.0001 0.6875C18.0235 0.6875 17.0532 1.01563 16.2173 1.61563L13.6298 3.42188L10.6485 3.8125H10.6001L10.5517 3.86094C9.5739 4.08174 8.67875 4.57514 7.96996 5.28392C7.26117 5.99271 6.76778 6.88787 6.54697 7.86562L6.5001 7.91406V7.9625L6.10947 10.9906L4.30322 13.3344L4.25322 13.3828V13.4313C3.16103 15.1766 3.1126 17.4297 4.30322 19.0953L6.15791 21.6828L6.64697 24.3703L1.61729 32.0344L0.00634766 34.4281H7.47666L9.28291 38.6266L10.4063 41.3125L12.0173 38.8703L16.9485 31.4484C18.2735 31.9922 19.7688 32.0422 21.0517 31.4484L25.9829 38.8703L27.5938 41.3125L28.7173 38.6266L30.5235 34.4281H37.9938L36.3829 32.0344L31.5001 24.6141L31.8907 21.6844L33.697 19.0969L33.747 19.0484V19C34.8392 17.2547 34.8876 15.05 33.697 13.3844L31.8907 10.7953L31.3048 7.86562H31.3532C31.347 7.82812 31.311 7.80313 31.3048 7.76719C31.0235 5.72344 29.4063 4.06406 27.3501 3.8125H27.3001L24.3704 3.42188L21.7829 1.61563C20.9748 1.02362 20.0018 0.699107 19.0001 0.6875ZM19.0001 3.86094C19.3595 3.86094 19.7142 3.97031 19.9767 4.15469L22.7595 6.15625L23.1017 6.4L23.4923 6.45L26.911 6.9375H26.9579C27.661 7.01562 28.1485 7.50469 28.2282 8.20781V8.30469L28.8642 11.7719L28.911 12.1141L29.1563 12.4062L31.1579 15.1891C31.5313 15.7078 31.5798 16.5875 31.1095 17.3375L28.9126 20.4141L28.8626 20.8047L28.3751 24.2234V24.2703C28.3491 24.5145 28.2656 24.749 28.1313 24.9547L28.0329 25.0047V25.0516C27.8007 25.3305 27.4676 25.5063 27.1063 25.5406H27.0079L23.4438 26.1766L23.0532 26.2234L22.7595 26.4688L19.9767 28.4703C19.4579 28.8437 18.5298 28.8922 17.7798 28.4219L15.2407 26.4688L14.947 26.225L14.5079 26.175L11.0892 25.6875H11.0423C10.8213 25.668 10.6083 25.5956 10.4212 25.4765C10.2342 25.3574 10.0785 25.1951 9.96729 25.0031C9.86345 24.8229 9.79703 24.6236 9.77197 24.4172V24.3203L9.1376 20.7563L9.0876 20.3656L8.84385 20.0719L6.84229 17.2891C6.46885 16.7703 6.42041 15.8422 6.89072 15.0922L8.84385 12.5531L9.0876 12.2594L9.13604 11.8203L9.57666 8.54844C9.58291 8.525 9.61885 8.525 9.6251 8.5C9.72251 8.12387 9.91875 7.78064 10.1935 7.5059C10.4682 7.23116 10.8115 7.03491 11.1876 6.9375C11.2126 6.93125 11.2126 6.89531 11.236 6.88906L14.5079 6.44844L14.8985 6.40156L15.2407 6.15625L18.0235 4.15469C18.286 3.97187 18.6407 3.86094 19.0001 3.86094ZM29.7907 27.6406L32.1845 31.3031H28.422L28.0313 32.2797L26.9579 34.7687L23.6376 29.6906L24.3688 29.1547L27.447 28.6172V28.6656C27.4829 28.6594 27.5063 28.6234 27.5438 28.6172C28.3662 28.4985 29.1432 28.1613 29.7907 27.6406ZM8.20947 27.6891C8.88795 28.3059 9.74029 28.6982 10.6501 28.8125H10.6985L13.6782 29.2031L14.361 29.7406L11.0407 34.7687L9.96729 32.2797L9.57666 31.3031H5.81729L8.20947 27.6891Z" fill="black"/>
</svg>
