<svg width="107" height="80" viewBox="0 0 107 80" fill="none" xmlns="http://www.w3.org/2000/svg">
<path d="M19.9583 14.2221C23.3871 14.2221 26.1667 12.0581 26.1667 9.38875C26.1667 6.71938 23.3871 4.55542 19.9583 4.55542C16.5296 4.55542 13.75 6.71938 13.75 9.38875C13.75 12.0581 16.5296 14.2221 19.9583 14.2221Z" stroke="black" stroke-width="2.5" stroke-miterlimit="10"/>
<path d="M7.54163 30.3333C7.54163 30.3333 9.61107 23.3878 13.75 21.7767C17.8888 20.1656 22.0277 20.1656 26.1666 21.7767C30.3055 23.3878 32.375 30.3333 32.375 30.3333" stroke="black" stroke-width="2.5" stroke-linecap="round" stroke-linejoin="round"/>
<path d="M92.3723 29.2441C95.8011 29.2441 98.5807 27.0801 98.5807 24.4107C98.5807 21.7413 95.8011 19.5774 92.3723 19.5774C88.9436 19.5774 86.164 21.7413 86.164 24.4107C86.164 27.0801 88.9436 29.2441 92.3723 29.2441Z" stroke="black" stroke-width="2.5" stroke-miterlimit="10"/>
<path d="M79.9556 45.3553C79.9556 45.3553 82.0251 38.4098 86.164 36.7987C90.3028 35.1876 94.4417 35.1876 98.5806 36.7987C102.72 38.4098 104.789 45.3537 104.789 45.3537" stroke="black" stroke-width="2.5" stroke-linecap="round" stroke-linejoin="round"/>
<path d="M38.5688 62.5683C41.9976 62.5683 44.7771 60.4043 44.7771 57.7349C44.7771 55.0656 41.9976 52.9016 38.5688 52.9016C35.14 52.9016 32.3605 55.0656 32.3605 57.7349C32.3605 60.4043 35.14 62.5683 38.5688 62.5683Z" stroke="black" stroke-width="2.5" stroke-miterlimit="10"/>
<path d="M26.1522 78.6795C26.1522 78.6795 28.2216 71.734 32.3605 70.1229C36.4994 68.5118 40.6383 68.5118 44.7772 70.1229C48.916 71.734 50.9855 78.6779 50.9855 78.6779M85.2534 14.4413C76.5224 6.42275 63.4891 1.33325 48.9305 1.33325C43.1982 1.33325 37.7059 2.1227 32.6171 3.56786M58.1044 74.7564C75.1007 72.1722 88.8605 62.549 94.1686 49.9421M1.51335 35.1473C1.39329 36.2252 1.33322 37.3068 1.33331 38.3888C1.33331 51.2358 9.73112 62.5555 22.4872 69.2045" stroke="black" stroke-width="2.5" stroke-linecap="round" stroke-linejoin="round"/>
</svg>
