<svg width="52" height="52" viewBox="0 0 52 52" fill="none" xmlns="http://www.w3.org/2000/svg">
<path d="M34.4152 29.9799C37.1772 29.9195 39.8501 30.9588 41.8458 32.8691C43.8416 34.7794 44.9967 37.4043 45.0571 40.1663L45.1027 42.2491C45.1268 43.3539 44.7111 44.4231 43.947 45.2214C43.1829 46.0197 42.1329 46.4818 41.0281 46.5059L11.8684 47.1437C10.7636 47.1679 9.69446 46.7522 8.89616 45.988C8.09786 45.2239 7.6358 44.174 7.61164 43.0692L7.56608 40.9863C7.50567 38.2243 8.54494 35.5514 10.4553 33.5557C12.3656 31.5599 14.9905 30.4048 17.7525 30.3444L34.4152 29.9799ZM45.4675 19.4878C45.8332 19.1021 46.3325 18.8708 46.8632 18.8411C47.3939 18.8115 47.9158 18.9858 48.3222 19.3284C48.7286 19.671 48.9886 20.1559 49.0491 20.684C49.1097 21.212 48.9661 21.7433 48.6478 22.1689L48.4771 22.3706L42.7157 28.3897C42.3649 28.7562 41.8924 28.982 41.3869 29.0249C40.8815 29.0678 40.3777 28.9248 39.9701 28.6227L39.7706 28.4541L36.761 25.5734C36.3753 25.2077 36.144 24.7084 36.1143 24.1777C36.0847 23.647 36.259 23.1251 36.6016 22.7187C36.9442 22.3124 37.4292 22.0523 37.9572 21.9918C38.4853 21.9313 39.0165 22.0749 39.4421 22.3932L39.6417 22.5639L41.1465 24.0042L45.4675 19.4878ZM25.5371 5.16812C28.2992 5.10771 30.972 6.14697 32.9678 8.05729C34.9635 9.96761 36.1187 12.5925 36.1791 15.3545C36.2395 18.1165 35.2002 20.7894 33.2899 22.7852C31.3796 24.7809 28.7547 25.9361 25.9927 25.9965C23.2307 26.0569 20.5578 25.0176 18.5621 23.1073C16.5663 21.197 15.4112 18.5721 15.3507 15.8101C15.2903 13.0481 16.3296 10.3752 18.2399 8.37943C20.1502 6.38367 22.7751 5.22853 25.5371 5.16812Z" fill="black"/>
</svg>
