<svg width="75" height="82" viewBox="0 0 75 82" fill="none" xmlns="http://www.w3.org/2000/svg">
<path d="M18.0675 78.5001V67.7863C16.95 56.6226 3.75 50.6451 3.75 33.5001C3.75 16.3626 13.9763 3.29005 34.4325 3.50005C49.1588 3.65755 63.0675 12.0726 63.0675 29.2176L71.25 42.0726C71.25 50.6451 63.0675 50.6451 63.0675 50.6451C63.0675 50.6451 65.115 72.0726 46.7025 72.0726V78.5001" stroke="#2F2139" stroke-width="5.625" stroke-linecap="round" stroke-linejoin="round"/>
<path d="M33.75 41C35.7391 41 37.6468 40.2098 39.0533 38.8033C40.4598 37.3968 41.25 35.4891 41.25 33.5C41.25 31.5109 40.4598 29.6032 39.0533 28.1967C37.6468 26.7902 35.7391 26 33.75 26C31.7609 26 29.8532 26.7902 28.4467 28.1967C27.0402 29.6032 26.25 31.5109 26.25 33.5C26.25 35.4891 27.0402 37.3968 28.4467 38.8033C29.8532 40.2098 31.7609 41 33.75 41Z" stroke="#2F2139" stroke-width="5.625" stroke-linecap="round" stroke-linejoin="round"/>
<path d="M33.75 44.75C36.7337 44.75 39.5952 43.5647 41.705 41.455C43.8147 39.3452 45 36.4837 45 33.5C45 30.5163 43.8147 27.6548 41.705 25.545C39.5952 23.4353 36.7337 22.25 33.75 22.25C30.7663 22.25 27.9048 23.4353 25.795 25.545C23.6853 27.6548 22.5 30.5163 22.5 33.5C22.5 36.4837 23.6853 39.3452 25.795 41.455C27.9048 43.5647 30.7663 44.75 33.75 44.75Z" stroke="#2F2139" stroke-width="5.625" stroke-linecap="round" stroke-linejoin="round"/>
</svg>
