<svg width="50" height="50" viewBox="0 0 50 50" fill="none" xmlns="http://www.w3.org/2000/svg">
<g clip-path="url(#clip0_4439_515)">
<path d="M25 0C18.3696 0 12.0107 2.63392 7.32233 7.32233C2.63392 12.0107 0 18.3696 0 25C0 31.6304 2.63392 37.9893 7.32233 42.6777C12.0107 47.3661 18.3696 50 25 50C31.6304 50 37.9893 47.3661 42.6777 42.6777C47.3661 37.9893 50 31.6304 50 25C50 18.3696 47.3661 12.0107 42.6777 7.32233C37.9893 2.63392 31.6304 0 25 0ZM10.2312 14.7688H34.0979C35.2977 14.7862 36.4427 15.2742 37.2863 16.1275C38.1299 16.9808 38.6046 18.1313 38.6083 19.3312V31.5458C38.5896 32.743 38.1057 33.886 37.2593 34.7328C36.4128 35.5797 35.2701 36.064 34.0729 36.0833H16.75C14.3042 36.0833 12.5 34.0208 12.5 31.5458V21.8813L9.38125 16.4688C8.73542 15.5938 9.27708 14.7688 10.2312 14.7688ZM17.3458 19.3312C16.6229 19.3312 15.9292 19.7687 15.9292 20.4646C15.9292 21.1604 16.6229 21.5979 17.3458 21.5979H33.8146C34.5354 21.5979 35.2312 21.1604 35.2312 20.4646C35.2312 19.7687 34.5354 19.3292 33.8146 19.3292L17.3458 19.3312ZM17.3458 23.8667C16.6229 23.8667 15.9292 24.3042 15.9292 25C15.9292 25.6958 16.6229 26.1333 17.3458 26.1333H33.8146C34.5354 26.1333 35.2312 25.6958 35.2312 25C35.2312 24.3042 34.5354 23.8667 33.8146 23.8667H17.3458ZM17.3187 28.4292C16.5979 28.4292 15.9021 28.8667 15.9021 29.5625C15.9021 30.2583 16.5979 30.6958 17.3187 30.6958H29.2521C29.975 30.6958 30.6687 30.2583 30.6687 29.5625C30.6687 28.8667 29.975 28.4271 29.2521 28.4271L17.3187 28.4292Z" fill="#2F2139"/>
</g>
<defs>
<clipPath id="clip0_4439_515">
<rect width="50" height="50" fill="white"/>
</clipPath>
</defs>
</svg>
