<svg width="50" height="50" viewBox="0 0 50 50" fill="none" xmlns="http://www.w3.org/2000/svg">
<path d="M21.9641 49.8125C17.5047 49.2344 12.9141 47.3219 9.57036 44.6453C2.04223 38.6391 -1.37495 29.15 0.578171 19.7266C1.41567 15.6578 3.59692 11.3766 6.38911 8.29219C8.44598 5.97735 10.9264 4.07709 13.6969 2.69375C17.375 0.829687 20.8907 -0.0078125 25.0407 -0.0078125C28.0188 -0.0078125 30.4125 0.382812 33.1547 1.31875C36.7572 2.55444 40.0301 4.59629 42.7238 7.28865C45.4175 9.98101 47.461 13.2528 48.6985 16.8547C50.1641 21.1516 50.4313 25.725 49.4954 30.2578C48.7469 33.8391 46.8172 37.8672 44.4422 40.7797C43.4657 41.9844 41.2188 44.1328 40.0391 45.0031C36.5099 47.6242 32.3593 49.2817 27.9954 49.8125C26.7094 49.975 23.2079 49.9672 21.9641 49.8125ZM28.7766 47.7219C34.8677 46.701 40.3038 43.3023 43.8891 38.2734C48.1125 32.3406 49.2438 24.3812 46.8594 17.4406C46.2985 15.8125 44.9063 13.0953 43.8891 11.6625C42.7579 10.0594 39.9579 7.25156 38.3469 6.12031C36.7844 5.01406 34.1235 3.67031 32.3079 3.07656C29.0305 1.98772 25.5504 1.64918 22.1246 2.08595C18.6988 2.52272 15.415 3.72365 12.5157 5.6C9.78782 7.39191 7.45602 9.72371 5.66411 12.4516C3.78824 15.3493 2.58755 18.6316 2.15077 22.0558C1.71399 25.4799 2.05229 28.9585 3.14067 32.2344C3.74223 34.0484 5.08598 36.7188 6.18442 38.2812C7.32348 39.8844 10.1235 42.6922 11.7266 43.8234C13.1672 44.8328 15.8766 46.2234 17.5047 46.7937C21.1286 48.0249 25.0001 48.3437 28.7766 47.7219ZM20.1172 39.3391C18.949 39.1629 17.8283 38.7532 16.8219 38.1344C15.9188 37.5562 9.09848 30.875 8.76567 30.2484C8.38286 29.5328 9.05005 28.2297 10.0032 27.8312L10.45 27.6437L9.07505 26.2437C8.3188 25.4703 7.60161 24.6484 7.48755 24.4203C7.2188 23.9 7.21098 22.7844 7.46255 22.2875C7.5688 22.0844 7.82036 21.775 8.01567 21.6031C8.35005 21.3266 8.3813 21.2281 8.35005 20.5281C8.30942 19.9094 8.36567 19.6656 8.63442 19.2016C9.02505 18.5344 9.8313 18.0859 10.6204 18.0781C11.0594 18.0781 11.1735 18.0219 11.361 17.6953C11.85 16.8406 13.2485 16.5313 14.3157 17.0531L14.8938 17.3297L15.1782 17.0531C15.5688 16.6953 16.35 16.3781 16.8625 16.3781C17.8875 16.3781 19.336 17.5578 19.336 18.3875C19.336 19.3797 18.4329 19.5516 17.5375 18.7297C16.9438 18.1766 16.6422 18.1187 16.3985 18.5094C16.2766 18.6969 16.5688 19.0469 18.3188 20.8125C20.0688 22.5703 20.386 22.9453 20.386 23.2781C20.3722 23.5332 20.2635 23.774 20.0815 23.9532C19.8994 24.1324 19.6569 24.2371 19.4016 24.2469C19.0844 24.2469 18.5641 23.7906 16.1625 21.3984C13.7125 18.9562 13.2657 18.5656 13.0704 18.6891C12.5407 19.0234 12.7204 19.2672 15.5844 22.1391C17.1391 23.7016 18.4172 25.0844 18.4172 25.2156C18.4172 25.4844 18.1735 25.9812 17.9704 26.1109C17.8037 26.1841 17.6225 26.2178 17.4407 26.2094C17.1063 26.2172 16.5938 25.7531 13.8688 23.0359C11.1344 20.3172 10.6454 19.8781 10.45 20C9.91255 20.3422 10.0922 20.5781 13.2094 23.7109C14.911 25.4125 16.3344 26.9344 16.375 27.0969C16.4641 27.3906 16.2688 27.9031 16.0094 28.0812C15.8373 28.1544 15.651 28.1881 15.4641 28.1797C15.1297 28.1797 14.7079 27.8141 12.4532 25.5594C10.2797 23.3859 9.77505 22.9391 9.49848 22.9641C8.71723 23.0531 8.9938 23.4031 13.0297 27.4484C16.5297 30.9562 16.9766 31.4531 16.9766 31.8187C16.9801 31.953 16.9499 32.086 16.8888 32.2055C16.8277 32.3251 16.7375 32.4274 16.6266 32.5031C16 33 15.7563 32.8859 14.1766 31.3563C13.3704 30.5828 12.5407 29.8344 12.3204 29.6953C11.9219 29.4516 10.9125 29.3453 10.725 29.5406C10.6594 29.5969 12.1485 31.1687 14.0297 33.0312C17.1625 36.1312 17.5204 36.45 18.4407 36.8891C19.2885 37.3112 20.2222 37.5323 21.1693 37.535C22.1164 37.5377 23.0514 37.322 23.9016 36.9047C26.5297 35.6516 27.9875 32.6078 27.2704 29.8484C26.9125 28.4734 26.4641 27.8141 24.6579 25.95C22.575 23.8172 22.0938 23.2312 21.5813 22.2062C21.011 21.0594 20.7672 19.9438 20.7672 18.5516C20.7672 17.0453 20.9219 16.3625 21.5891 14.9547C22.2235 13.6125 23.55 12.2047 24.861 11.4797C27.4329 10.0469 30.8188 10.1688 33.275 11.7734C33.7641 12.0906 35.5297 13.7516 37.7266 15.9563C40.9907 19.2281 41.3641 19.6516 41.3641 20.025C41.3641 20.9125 40.6391 21.8969 39.8344 22.1C39.5329 22.1813 39.5907 22.2625 40.9579 23.6547C41.7547 24.4609 42.4954 25.3313 42.6094 25.6C42.9922 26.5203 42.8204 27.4141 42.1204 28.1469C41.7625 28.5219 41.7141 28.6516 41.7047 29.4C41.6969 30.0594 41.6235 30.3359 41.3625 30.7109C41.1564 31.016 40.8805 31.2675 40.5576 31.4444C40.2348 31.6213 39.8743 31.7186 39.5063 31.7281C39.0016 31.7281 38.9047 31.7766 38.6516 32.1594C38.0813 33.0391 36.6 33.3469 35.6407 32.7781L35.161 32.4937L34.8188 32.8281C34.0625 33.5531 32.8407 33.65 31.9141 33.0562C31.1657 32.5844 30.6125 31.925 30.6125 31.5094C30.6125 31.1437 31.1422 30.5406 31.4672 30.5406C31.7766 30.5406 32.1922 30.7844 32.6641 31.225C33.136 31.6719 33.5438 31.6719 33.6079 31.2172C33.6407 30.9734 33.25 30.5094 31.6704 28.9219C30.0094 27.2453 29.6922 26.8625 29.6922 26.5375C29.6885 26.3561 29.722 26.1758 29.7907 26.0078C29.9704 25.7391 30.475 25.5516 30.7829 25.6328C30.9454 25.6734 32.3204 26.9437 33.8266 28.4484C35.3407 29.9625 36.6672 31.1984 36.7891 31.1984C37.1235 31.1984 37.3422 30.8641 37.1875 30.5797C37.1141 30.45 35.836 29.1391 34.3547 27.6578C32.036 25.3469 31.661 24.9156 31.661 24.5734C31.6534 24.3892 31.687 24.2055 31.7594 24.0359C31.8985 23.8328 32.386 23.5891 32.6625 23.5891C32.7844 23.5891 34.3141 25.0125 36.0641 26.7547C39.2704 29.9453 39.5063 30.1234 39.8407 29.5953C39.9625 29.4 39.5235 28.9031 36.8047 26.1766C33.9969 23.3609 33.6235 22.9375 33.6235 22.5719C33.6235 22.3203 33.7375 22.0594 33.9172 21.8969C34.511 21.3359 34.6907 21.45 37.5797 24.3219C40.3141 27.0484 40.5579 27.2266 40.8922 26.7062C41.0141 26.5109 40.461 25.9094 37.0672 22.5063C33.3719 18.7953 33.1047 18.4937 33.1047 18.0625C33.1047 17.4109 33.4797 17.1016 34.2032 17.1516C34.3329 17.1594 35.1141 17.8188 35.9204 18.6078C36.7344 19.3969 37.6125 20.1375 37.8735 20.2516C38.386 20.4625 38.9797 20.4953 39.2329 20.3328C39.4766 20.1781 32.7219 13.5297 31.8438 13.0656C31.0909 12.6593 30.2628 12.4113 29.4104 12.3369C28.5581 12.2626 27.6995 12.3635 26.8876 12.6334C26.0757 12.9033 25.3276 13.3365 24.6894 13.9063C24.0512 14.4762 23.5364 15.1706 23.1766 15.9469C22.7532 16.85 22.6969 17.1187 22.6391 18.2828C22.5907 19.3812 22.6313 19.7234 22.8672 20.4234C23.2907 21.6687 23.6563 22.1812 25.5532 24.1187C27.6047 26.2187 27.9954 26.6984 28.5157 27.8219C29.9813 30.9469 29.3625 34.5609 26.9454 36.9688C25.1063 38.8156 22.6 39.6797 20.1172 39.3391Z" fill="black"/>
</svg>
